<?xml version="1.0" encoding="UTF-8" standalone="no"?>
<svg
   xmlns:dc="http://purl.org/dc/elements/1.1/"
   xmlns:cc="http://creativecommons.org/ns#"
   xmlns:rdf="http://www.w3.org/1999/02/22-rdf-syntax-ns#"
   xmlns:svg="http://www.w3.org/2000/svg"
   xmlns="http://www.w3.org/2000/svg"
   xmlns:sodipodi="http://sodipodi.sourceforge.net/DTD/sodipodi-0.dtd"
   xmlns:inkscape="http://www.inkscape.org/namespaces/inkscape"
   width="400"
   height="200"
   version="1.1"
   inkscape:version="0.92.3 (2405546, 2018-03-11)"
   sodipodi:docname="logo.svg"
   id="svg860"
   inkscape:export-filename="/home/bresilla/DATA/CODE/LANGUAGE/FOL/fol/etc/logo.svg.png"
   inkscape:export-xdpi="240"
   inkscape:export-ydpi="240">
  <rect
     id="backgroundrect"
     width="518.91888%"
     height="518.91888%"
     x="0"
     y="163"
     style="fill:none;stroke:none;stroke-width:5.18918896"
     data-darkreader-inline-fill=""
     data-darkreader-inline-stroke="" />
  <defs
     id="defs2" />
  <sodipodi:namedview
     id="base"
     pagecolor="#ffffff"
     bordercolor="#666666"
     borderopacity="1.0"
     inkscape:pageopacity="0.0"
     inkscape:pageshadow="2"
     inkscape:zoom="2.8"
     inkscape:cx="441.69239"
     inkscape:cy="73.360899"
     inkscape:document-units="mm"
     inkscape:current-layer="layer1"
     showgrid="false"
     inkscape:window-width="3751"
     inkscape:window-height="2084"
     inkscape:window-x="49"
     inkscape:window-y="0"
     inkscape:window-maximized="1"
     width="73px" />
  <metadata
     id="metadata5">
    <rdf:RDF>
      <cc:Work
         rdf:about="">
        <dc:format>image/svg+xml</dc:format>
        <dc:type
           rdf:resource="http://purl.org/dc/dcmitype/StillImage" />
        <dc:title />
      </cc:Work>
    </rdf:RDF>
  </metadata>
  <g
     class="currentLayer"
     id="g862">
    <title
       id="title854">Layer 1</title>
    <g
       inkscape:label="Layer 1"
       inkscape:groupmode="layer"
       id="layer1"
       class="">
      <path
         style="fill:#b380ff;stroke:#ff0000;stroke-width:0px;stroke-miterlimit:4;stroke-dasharray:none;stroke-opacity:1"
         d="M 199.61801,4.4285627 A 95.399559,95.399559 0 0 0 178.3589,6.9651428 V 22.908873 73.706683 L 222.35079,48.307774 260.44201,26.315215 A 95.399559,95.399559 0 0 0 240.08575,13.519664 l -40.46774,23.364531 z m -33.31533,6.0920603 a 95.399559,95.399559 0 0 0 -21.25911,11.25416 V 68.802069 L 116.91495,52.562865 a 95.399559,95.399559 0 0 0 -8.49908,19.640562 l 13.89494,8.022227 43.99274,25.398126 -8.7e-4,-50.797084 z m 103.00087,24.16922 -13.95505,8.05694 -43.99188,25.398956 43.99188,25.398071 38.3199,22.1238 a 95.399559,95.399559 0 0 0 1.43133,-15.842023 95.399559,95.399559 0 0 0 -0.40486,-8.112885 L 253.87481,68.145739 282.04241,51.882712 A 95.399559,95.399559 0 0 0 269.30354,34.689843 Z M 105.72175,84.05299 a 95.399559,95.399559 0 0 0 -1.42116,15.772587 95.399559,95.399559 0 0 0 0.41415,8.195033 l 40.91577,23.62124 -28.18791,16.27397 a 95.399559,95.399559 0 0 0 12.76847,17.17601 l 13.94574,-8.05108 43.99191,-25.3989 -43.99191,-25.39817 z m 127.04386,10.132826 v 50.797024 44.25865 a 95.399559,95.399559 0 0 0 21.2591,-11.12796 v -47.10522 l 28.30143,16.3392 a 95.399559,95.399559 0 0 0 8.58036,-19.59401 l -14.14902,-8.16877 z m -11.69286,31.637504 -43.99103,25.39895 -38.20053,22.05519 a 95.399559,95.399559 0 0 0 20.33683,12.80744 l 40.59562,-23.43905 8.4e-4,32.57509 a 95.399559,95.399559 0 0 0 21.2591,-2.54172 v -16.058 z"
         id="path1635-4"
         inkscape:connector-curvature="0"
         data-darkreader-inline-fill=""
         data-darkreader-inline-stroke="" />
      <text
         xml:space="preserve"
         style="font-style:normal;font-variant:normal;font-weight:normal;font-stretch:normal;font-size:137.83679199px;line-height:1.25;font-family:Bahnschrift;font-feature-settings:normal;text-align:start;letter-spacing:0px;word-spacing:0px;writing-mode:lr-tb;text-anchor:start;fill:#b380ff;fill-opacity:1;stroke:none;stroke-width:3.44587064px;"
         x="12.499993"
         y="152.70944"
         id="text1796"
         data-darkreader-inline-fill=""
         data-darkreader-inline-stroke=""><tspan
           sodipodi:role="line"
           id="tspan1794"
           x="12.499993"
           y="152.70944"
           style="font-style:normal;font-variant:normal;font-weight:normal;font-stretch:normal;font-size:137.83679199px;font-family:Bahnschrift;font-feature-settings:normal;text-align:start;writing-mode:lr-tb;text-anchor:start;fill:#b380ff;stroke-width:3.44587064px;"
           data-darkreader-inline-fill="">F</tspan></text>
      <text
         xml:space="preserve"
         style="font-style:normal;font-variant:normal;font-weight:normal;font-stretch:normal;font-size:137.83679199px;line-height:1.25;font-family:Bahnschrift;font-feature-settings:normal;text-align:start;letter-spacing:0px;word-spacing:0px;writing-mode:lr-tb;text-anchor:start;fill:#b380ff;fill-opacity:1;stroke:none;stroke-width:3.44587064px;"
         x="-387.53973"
         y="150.73186"
         id="text1796-1"
         transform="scale(-1,1)"
         data-darkreader-inline-fill=""
         data-darkreader-inline-stroke=""><tspan
           sodipodi:role="line"
           id="tspan1794-7"
           x="-387.53973"
           y="150.73186"
           style="font-style:normal;font-variant:normal;font-weight:normal;font-stretch:normal;font-size:137.83679199px;font-family:Bahnschrift;font-feature-settings:normal;text-align:start;writing-mode:lr-tb;text-anchor:start;fill:#b380ff;stroke-width:3.44587064px;"
           data-darkreader-inline-fill="">L</tspan></text>
    </g>
  </g>
</svg>
