<?xml version="1.0" encoding="UTF-8" standalone="no"?>
<svg
   xmlns:dc="http://purl.org/dc/elements/1.1/"
   xmlns:cc="http://creativecommons.org/ns#"
   xmlns:rdf="http://www.w3.org/1999/02/22-rdf-syntax-ns#"
   xmlns:svg="http://www.w3.org/2000/svg"
   xmlns="http://www.w3.org/2000/svg"
   xmlns:sodipodi="http://sodipodi.sourceforge.net/DTD/sodipodi-0.dtd"
   xmlns:inkscape="http://www.inkscape.org/namespaces/inkscape"
   width="200"
   height="200"
   version="1.1"
   inkscape:version="0.92.3 (2405546, 2018-03-11)"
   sodipodi:docname="logo_no_text.svg"
   id="svg860"
   inkscape:export-filename="/home/bresilla/DATA/CODE/PROJECTS/fol/logo/logo_no_text.svg.png"
   inkscape:export-xdpi="480"
   inkscape:export-ydpi="480">
  <rect
     id="backgroundrect"
     width="518.91888%"
     height="518.91888%"
     x="0"
     y="163"
     style="fill:none;stroke:none;stroke-width:5.18918896"
     data-darkreader-inline-fill=""
     data-darkreader-inline-stroke="" />
  <defs
     id="defs2" />
  <sodipodi:namedview
     id="base"
     pagecolor="#ffffff"
     bordercolor="#666666"
     borderopacity="1.0"
     inkscape:pageopacity="0.0"
     inkscape:pageshadow="2"
     inkscape:zoom="2.8"
     inkscape:cx="51.396376"
     inkscape:cy="72.540425"
     inkscape:document-units="mm"
     inkscape:current-layer="layer1"
     showgrid="false"
     inkscape:window-width="1871"
     inkscape:window-height="1028"
     inkscape:window-x="-98"
     inkscape:window-y="36"
     inkscape:window-maximized="0"
     width="73px" />
  <metadata
     id="metadata5">
    <rdf:RDF>
      <cc:Work
         rdf:about="">
        <dc:format>image/svg+xml</dc:format>
        <dc:type
           rdf:resource="http://purl.org/dc/dcmitype/StillImage" />
        <dc:title />
      </cc:Work>
    </rdf:RDF>
  </metadata>
  <g
     class="currentLayer"
     id="g862">
    <title
       id="title854">Layer 1</title>
    <g
       inkscape:label="Layer 1"
       inkscape:groupmode="layer"
       id="layer1"
       class="">
      <path
         style="fill:#b380ff;stroke:#ff0000;stroke-width:0px;stroke-miterlimit:4;stroke-dasharray:none;stroke-opacity:1"
         d="M 100.15152,1.9285629 A 98.078225,98.078225 0 0 0 78.295486,4.5363657 V 20.92777 73.1519 L 123.5226,47.039831 162.68336,24.429757 A 98.078225,98.078225 0 0 0 141.75554,11.274928 L 100.15152,35.295497 Z M 65.900747,8.191679 A 98.078225,98.078225 0 0 0 44.044715,19.761836 V 68.109573 L 15.126289,51.414398 A 98.078225,98.078225 0 0 0 6.3885689,71.606436 L 20.673656,79.853914 65.90164,105.96517 65.900747,53.741795 Z m 105.892973,24.847851 -14.3469,8.283167 -45.22709,26.112118 45.22709,26.111208 39.39587,22.744977 a 98.078225,98.078225 0 0 0 1.47152,-16.28682 98.078225,98.078225 0 0 0 -0.41623,-8.340681 L 155.93176,67.434815 184.89026,50.715147 A 98.078225,98.078225 0 0 0 171.79372,33.03953 Z M 3.6188012,83.788715 a 98.078225,98.078225 0 0 0 -1.4610631,16.215455 98.078225,98.078225 0 0 0 0.4257779,8.42514 l 42.06462,24.28447 -28.979381,16.73092 a 98.078225,98.078225 0 0 0 13.126988,17.65829 L 43.133057,158.82584 88.360188,132.71378 43.133057,106.60247 Z M 134.22985,94.206053 v 52.223317 45.50136 a 98.078225,98.078225 0 0 0 21.85603,-11.44042 v -48.42784 l 29.09608,16.79796 a 98.078225,98.078225 0 0 0 8.82129,-20.14417 l -14.54631,-8.39815 z m -12.02118,32.525817 -45.226225,26.11211 -39.273139,22.67449 a 98.078225,98.078225 0 0 0 20.907854,13.16704 l 41.73548,-24.09717 8.6e-4,33.48974 a 98.078225,98.078225 0 0 0 21.85603,-2.6131 V 178.9561 Z"
         id="path1635-4"
         inkscape:connector-curvature="0"
         data-darkreader-inline-fill=""
         data-darkreader-inline-stroke="" />
    </g>
  </g>
</svg>
